# xmcd
#
# Track frame offsets: 
#        150
#        26512
#        53667
#        72382
#        95300
#        109475
#        130360
#        154230
#        173500
#        193125
#        209122
#        226330
#
# Disc length: 3353 seconds
#
# Revision: 3
# Processed by: cddbd v1.5.2PL0 Copyright (c) Steve Scherf et al.
# Submitted via: ExactAudioCopy v0.99pb4
#
DISCID=ab0d170c
DTITLE=Freakwater - End Time
DYEAR=1999
DGENRE=Country
TTITLE0=Good For Nothing
TTITLE1=Cloak Of Frogs
TTITLE2=Sick, Sick, Sick
TTITLE3=Just Like You
TTITLE4=Cheap Watch
TTITLE5=My History
TTITLE6=When The Leaves Begin To Fall
TTITLE7=Written In Gold
TTITLE8=Dog Gone Wrong
TTITLE9=Queen Bee
TTITLE10=Raised Skin
TTITLE11=All Life Long
EXTD=YEAR: 1999
EXTT0=
EXTT1=
EXTT2=
EXTT3=
EXTT4=
EXTT5=
EXTT6=
EXTT7=
EXTT8=
EXTT9=
EXTT10=
EXTT11=
PLAYORDER=
